@startuml
'https://plantuml.com/state-diagram
Title TIE Interceptor 

state Standby
state Fight
state c <<choice>>
state Maintenance

[*] -> Standby : scenario start
Standby --> Fight : new fight

Fight -> c : arrived at base 
c -> Fight : go back to fight
c -> Maintenance : finished fight

Maintenance -> Standby : finished repairs 

Standby -> [*] : scenario end

@enduml